<svg width="128" height="128" viewBox="0 0 128 128" fill="none" xmlns="http://www.w3.org/2000/svg">
<path d="M115.162 5.00127C111.616 5.05427 108.51 6.89776 105.91 9.32267C103.545 11.5296 101.592 14.1402 99.8327 16.8321C97.9119 19.7727 96.2136 22.8639 94.6892 26.0225C93.5367 28.4155 92.5865 30.8954 91.6969 33.3949C90.6294 36.3861 89.667 39.4079 88.8016 42.4609C87.0467 48.6433 85.68 54.9393 84.8106 61.3031C83.7956 68.7061 83.4236 76.2148 83.5692 83.6816C83.6703 88.7219 84.0018 93.7706 84.7337 98.7627C85.0046 100.619 85.3443 102.469 85.7568 104.304C81.6323 107.807 76.8285 110.527 71.3898 111.403C68.6773 111.839 65.776 111.913 63.1751 110.917C60.3369 109.83 58.5007 107.616 57.3119 105.026C58.1671 103.86 59.0138 102.686 59.8266 101.502C61.2876 99.3736 62.6786 97.1914 64.0219 94.9892C64.9208 93.5155 65.8193 92.0443 66.6248 90.5184C68.2693 87.4037 69.6627 84.1455 70.7953 80.8171C71.2118 79.5862 71.592 78.3384 71.9195 77.0811C72.1864 76.0562 72.4249 75.0225 72.615 73.9804C72.805 72.9363 72.9466 71.8874 73.0315 70.8298C73.3388 66.9754 72.801 62.8529 70.3263 59.7214C69.6716 58.8913 68.9086 58.1409 68.002 57.5794C66.002 56.3401 63.5435 56.1452 61.33 56.9566C60.2027 57.3702 59.1841 58.021 58.2722 58.7873C56.6641 60.1386 55.3895 61.8383 54.2537 63.5817C52.7406 65.9046 51.4725 68.3845 50.3621 70.9166C49.1179 73.754 48.1717 76.6882 47.405 79.6838C46.8716 81.768 46.4422 83.8721 46.1163 85.9977C45.8381 87.8101 45.6436 89.6353 45.5348 91.4648C45.314 95.1781 45.5312 99.1257 46.3435 102.91C46.2615 103.008 46.1858 103.111 46.1034 103.208C44.4928 105.117 42.7847 106.953 40.8972 108.601C38.9967 110.26 36.8891 111.822 34.4779 112.673C33.0618 113.173 31.5431 113.369 30.0679 113.009C29.4509 112.859 28.8569 112.623 28.2988 112.324C26.0009 111.095 24.0033 108.869 22.6632 106.695C22.1792 105.91 21.7898 105.06 21.3992 104.217C28.9062 93.2744 35.2976 81.5659 40.5054 69.4099C43.3213 62.8381 45.7657 56.0914 47.6828 49.2108C48.8081 45.1723 49.7984 41.0773 50.4122 36.9316C51.0823 32.4074 51.2683 27.7699 50.9557 23.2082C50.7228 19.8046 50.2105 16.326 48.9088 13.1459C47.3783 9.40676 44.6076 6.30438 40.3792 5.62413C39.4213 5.46991 38.4484 5.45995 37.4856 5.57432C33.5519 6.04057 30.1577 8.49697 27.4396 11.1909C25.5447 13.0682 23.8763 15.164 22.3725 17.355C20.9645 19.4065 19.6896 21.5508 18.5941 23.7809C17.4336 26.1436 16.4615 28.6008 15.5869 31.0787C13.5323 36.8981 11.9978 42.8889 10.7596 48.9243C9.57766 54.6867 8.69574 60.5196 8.11872 66.3713C7.14744 76.2196 6.90765 86.3879 8.61163 96.1724C8.99214 98.3594 9.52226 100.536 10.1531 102.685C9.80411 103.163 9.47131 103.656 9.11709 104.13C6.6157 107.475 3.93559 110.665 1.20654 113.831C-0.61309 115.943 -0.342169 119.111 1.80055 120.905C3.94327 122.698 7.14583 122.431 8.96506 120.319C11.0148 117.94 13.0091 115.527 14.9549 113.071C16.0349 114.622 17.2262 116.106 18.5941 117.418C20.2844 119.038 22.1974 120.437 24.3308 121.44C25.6567 122.063 27.0583 122.525 28.501 122.797C35.0266 124.03 41.1705 121.155 46.1288 117.181C47.7341 115.894 49.223 114.482 50.6524 113.009C51.9161 114.749 53.4074 116.336 55.2521 117.642C56.4283 118.474 57.7094 119.166 59.043 119.721C63.2172 121.459 67.8298 121.698 72.2753 121.066C78.6076 120.165 84.3496 117.524 89.396 113.843C90.3301 115.227 91.4623 116.48 92.821 117.505C95.5949 119.601 99.032 120.55 102.485 120.743C105.91 120.933 109.327 120.437 112.356 118.775C116.137 116.699 118.571 113.292 120.306 109.472C121.389 107.077 120.297 104.276 117.863 103.208C115.433 102.14 112.594 103.216 111.511 105.612C110.746 107.304 109.796 109.013 108.235 110.12C106.715 111.2 104.847 111.366 103.031 111.265C101.03 111.155 99.0158 110.631 97.734 109.024C97.3175 108.498 96.994 107.904 96.711 107.293C103.197 100.349 108.082 92.0008 112.04 83.4572C115.215 76.6009 117.835 69.5019 120.075 62.2993C122.323 55.0812 124.204 47.7435 125.724 40.344C126.824 34.9961 127.867 29.613 127.988 24.1423C128.045 21.4715 127.904 18.7665 127.341 16.1471C126.371 11.6233 123.957 7.42777 119.355 5.73611C118.506 5.42289 117.617 5.2069 116.715 5.08854C116.193 5.0196 115.667 4.9937 115.162 5.00127ZM115.744 14.6152C116.589 14.8197 117.026 15.6171 117.334 16.3587C118.053 18.097 118.223 20.056 118.284 21.9131C118.413 25.9264 117.835 29.8601 117.119 33.7934C116.521 37.085 115.825 40.3588 115.073 43.6189C112.145 56.2863 108.235 68.9141 102.603 80.6801C100.176 85.7431 97.3418 90.6909 93.9936 95.2506C93.9936 95.2383 93.9977 95.2255 93.9936 95.2132C93.3628 89.9358 93.1485 84.6093 93.1971 79.298C93.2537 73.709 93.6136 68.1135 94.3738 62.5731C95.0693 57.5053 96.1004 52.4901 97.4065 47.5418C98.3365 44.0218 99.4081 40.5301 100.617 37.0938C101.369 34.9566 102.15 32.8031 103.104 30.7671C104.422 27.9656 105.902 25.2279 107.568 22.6105C108.725 20.7885 109.978 19.01 111.434 17.4048C112.182 16.5807 112.983 15.7789 113.909 15.1508C114.592 14.689 115.029 14.4431 115.744 14.6152ZM38.7112 15.4995C38.7197 15.5083 38.7282 15.5155 38.7367 15.5242C38.7925 15.5864 38.8523 15.6557 38.9008 15.7235C39.0395 15.9188 39.1479 16.1324 39.2547 16.3464C39.5264 16.8927 39.7395 17.4689 39.9117 18.0524C40.4322 19.815 40.6663 21.6561 40.8086 23.482C41.2538 29.1906 40.6477 34.9016 39.4188 40.4811C38.2191 45.9271 36.5717 51.2675 34.693 56.521C31.6166 65.1223 27.7687 73.4742 23.434 81.5273C21.7405 84.6727 19.9411 87.7631 18.0762 90.8173C17.1692 83.032 17.3887 75.1097 18.1643 67.3301C19.1024 57.9229 20.8335 48.5417 23.5096 39.4597C24.6446 35.6082 25.9285 31.7546 27.7048 28.1398C28.8286 25.8531 30.2022 23.6761 31.7234 21.6266C33.0081 19.8954 34.4638 18.2114 36.1714 16.8696C36.7173 16.44 37.2935 16.0299 37.9279 15.7362C38.1269 15.6438 38.3335 15.5657 38.547 15.5119C38.5741 15.5051 38.6534 15.5103 38.7112 15.4995ZM63.1121 68.1398C63.1634 68.9512 63.1622 69.7741 63.074 70.5807C62.6551 74.4171 61.294 78.2392 59.7761 81.7759C58.6058 84.5029 57.1562 87.0964 55.6188 89.6341C55.768 88.3134 55.9524 86.9992 56.1999 85.6988C56.9977 81.5085 58.1995 77.3999 60.0288 73.532C60.7862 71.9304 61.6216 70.3603 62.5941 68.8747C62.759 68.622 62.939 68.3829 63.1121 68.1398Z" fill="#006AE6"/>
<path d="M117.685 5.47939C115.809 5.49334 114.038 6.60079 113.274 8.41838C112.259 10.8417 113.419 13.6165 115.878 14.6199C116.747 14.9662 117.164 15.7935 117.471 16.6252C118.11 18.3595 118.255 20.2739 118.304 22.1047C118.409 26.0539 117.839 29.9154 117.127 33.7857C116.496 37.2455 115.76 40.697 114.956 44.1222C112.526 54.4471 109.396 64.6652 105.263 74.4585C102.198 81.7256 98.5791 88.8458 93.8763 95.2306C89.1453 101.66 83.0798 107.714 75.2635 110.287C73.4843 110.872 71.6566 111.23 69.7924 111.432C66.9999 111.74 64.983 114.221 65.2947 116.974C65.6069 119.727 68.1245 121.715 70.9166 121.407C73.4964 121.12 76.0277 120.603 78.4862 119.789C88.3244 116.534 96.1326 109.226 102.081 101.059C107.491 93.6274 111.608 85.3325 115.02 76.8495C119.396 65.9603 122.627 54.6324 125.113 43.1881C125.772 40.1762 126.375 37.1467 126.897 34.1097C127.839 28.6418 128.445 23.0129 127.568 17.4967C126.945 13.5938 125.388 9.62625 122.056 7.2105C121.284 6.64861 120.451 6.20507 119.569 5.84043C118.955 5.58977 118.312 5.47461 117.685 5.47939Z" fill="url(#paint0_linear_12_141)"/>
<path d="M64.4105 56.6128C63.5253 56.5685 62.6798 56.6996 61.8326 56.9367C59.2795 57.6764 57.8222 60.3233 58.5723 62.8394C59.1614 64.8144 60.9354 66.0737 62.9066 66.1897C63.0668 66.5774 63.163 66.9962 63.2224 67.4099C63.4008 68.6433 63.3179 69.9045 63.1468 71.1335C62.6074 75.0126 61.2289 78.7972 59.6337 82.3662C57.713 86.6649 55.1574 90.6608 52.5323 94.5705C50.8437 97.0855 49.0701 99.5355 47.162 101.893C45.24 104.268 43.1822 106.556 40.8689 108.568C39.0901 110.115 37.1326 111.561 34.9171 112.441C33.5495 112.985 32.0671 113.285 30.5956 113.051C29.9434 112.948 29.3377 112.744 28.738 112.479C26.1711 111.35 23.161 112.477 22.0155 115.007C20.8703 117.536 22.0264 120.503 24.5933 121.632C26.0065 122.249 27.4727 122.712 29.0032 122.952C36.0432 124.054 42.5053 120.493 47.5914 116.028C49.8546 114.041 51.8967 111.831 53.821 109.527C56.5674 106.239 59.0361 102.734 61.3523 99.141C63.085 96.4538 64.812 93.7277 66.3186 90.9094C67.6995 88.3263 68.8754 85.6372 69.9058 82.9018C71.0016 79.9975 71.9357 77.0147 72.4856 73.9606C72.7201 72.661 72.8778 71.3436 72.9385 70.0253C72.9789 69.2315 72.987 68.44 72.9385 67.6466C72.7484 64.3641 71.6526 60.9194 69.1363 58.6304C68.222 57.7987 67.1326 57.1583 65.9268 56.8371C65.4206 56.702 64.9345 56.6391 64.4105 56.6128Z" fill="url(#paint1_linear_12_141)"/>
<path d="M38.1648 5.76611C37.6852 5.79639 37.2016 5.85697 36.724 5.94025C34.105 6.40611 32.3723 8.87606 32.8446 11.4572C33.3173 14.0383 35.8235 15.7459 38.4426 15.2805C38.6585 15.2402 38.7818 15.2199 38.8089 15.243C39.2084 15.5845 39.4519 16.1337 39.6557 16.6003C40.3374 18.1609 40.6395 19.8808 40.8562 21.5569C41.7871 28.7556 40.7927 36.1479 39.0111 43.1385C36.2736 53.8806 32.1523 64.2509 27.2595 74.2096C22.1225 84.6644 16.1302 94.7825 9.12627 104.135C6.62246 107.479 3.94759 110.672 1.21612 113.836C-0.603509 115.948 -0.34552 119.104 1.7972 120.897C3.93992 122.69 7.15541 122.436 8.97464 120.324C11.8521 116.979 14.6652 113.597 17.3021 110.062C22.3623 103.279 26.9017 96.1215 30.9873 88.73C34.6929 82.0259 38.0224 75.1282 40.9448 68.0575C42.3119 64.7487 43.5869 61.4004 44.7502 58.0155C45.8008 54.9582 46.7611 51.8705 47.6168 48.755C48.6871 44.8576 49.5961 40.8957 50.1816 36.8994C50.8428 32.3899 51.0304 27.7704 50.7126 23.2255C50.476 19.8473 49.9714 16.3951 48.6782 13.2381C47.3365 9.96278 45.0418 7.13139 41.4753 6.1148C40.8684 5.94145 40.2347 5.83147 39.6051 5.77846C39.1203 5.73742 38.6439 5.73542 38.1648 5.76611Z" fill="url(#paint2_linear_12_141)"/>
<defs>
<linearGradient id="paint0_linear_12_141" x1="102.344" y1="49.7953" x2="136.818" y2="63.7877" gradientUnits="userSpaceOnUse">
<stop stop-color="#006AE6"/>
<stop offset="0.489583" stop-color="#4DA0FC"/>
<stop offset="1" stop-color="#006AE6"/>
</linearGradient>
<linearGradient id="paint1_linear_12_141" x1="41.1002" y1="108.052" x2="78.4836" y2="129.461" gradientUnits="userSpaceOnUse">
<stop stop-color="#006AE6"/>
<stop offset="0.31" stop-color="#4DA0FC"/>
<stop offset="1" stop-color="#006AE6"/>
</linearGradient>
<linearGradient id="paint2_linear_12_141" x1="1.4175" y1="5.43934" x2="106.691" y2="72.5679" gradientUnits="userSpaceOnUse">
<stop offset="0.23" stop-color="#006AE6"/>
<stop offset="0.55" stop-color="#4DA0FC"/>
<stop offset="1" stop-color="#006AE6"/>
</linearGradient>
</defs>
</svg>
