<svg width="512" height="512" viewBox="0 0 512 512" fill="none" xmlns="http://www.w3.org/2000/svg">
<rect width="512" height="512" fill="white"/>
<path d="M385.915 105.991C376.91 106.125 369.024 110.806 362.422 116.964C356.415 122.568 351.456 129.197 346.989 136.032C342.112 143.499 337.799 151.349 333.928 159.369C331.002 165.446 328.589 171.743 326.33 178.09C323.619 185.685 321.176 193.359 318.978 201.111C314.522 216.81 311.051 232.797 308.844 248.956C306.267 267.755 305.322 286.821 305.692 305.782C305.948 318.581 306.79 331.401 308.649 344.077C309.337 348.789 310.199 353.489 311.246 358.149C300.773 367.043 288.575 373.949 274.765 376.173C267.877 377.282 260.51 377.468 253.905 374.94C246.698 372.181 242.036 366.559 239.017 359.982C241.189 357.021 243.339 354.04 245.403 351.033C249.112 345.628 252.645 340.087 256.056 334.495C258.338 330.753 260.62 327.017 262.665 323.142C266.841 315.233 270.379 306.96 273.255 298.508C274.313 295.382 275.278 292.214 276.11 289.021C276.787 286.419 277.393 283.794 277.876 281.148C278.358 278.496 278.718 275.833 278.933 273.147C279.714 263.36 278.348 252.892 272.064 244.94C270.402 242.832 268.464 240.927 266.162 239.501C261.084 236.354 254.841 235.859 249.22 237.919C246.358 238.97 243.771 240.622 241.456 242.568C237.372 246 234.136 250.315 231.251 254.743C227.409 260.641 224.189 266.938 221.37 273.368C218.21 280.573 215.807 288.024 213.861 295.63C212.506 300.923 211.416 306.265 210.588 311.663C209.882 316.265 209.388 320.9 209.112 325.546C208.551 334.975 209.103 344.999 211.165 354.607C210.957 354.856 210.765 355.118 210.555 355.366C206.466 360.212 202.129 364.874 197.336 369.058C192.51 373.272 187.158 377.238 181.035 379.399C177.439 380.668 173.583 381.167 169.837 380.253C168.27 379.87 166.762 379.271 165.345 378.513C159.51 375.392 154.437 369.74 151.034 364.22C149.805 362.227 148.817 360.067 147.825 357.927C166.887 330.141 183.117 300.409 196.341 269.542C203.491 252.854 209.698 235.723 214.566 218.251C217.424 207.996 219.938 197.598 221.497 187.071C223.198 175.582 223.671 163.807 222.877 152.223C222.285 143.58 220.985 134.747 217.679 126.672C213.793 117.177 206.757 109.299 196.02 107.572C193.588 107.181 191.117 107.155 188.672 107.446C178.684 108.63 170.065 114.867 163.163 121.708C158.351 126.475 154.115 131.796 150.296 137.36C146.721 142.569 143.483 148.015 140.702 153.677C137.755 159.677 135.287 165.916 133.066 172.208C127.849 186.986 123.952 202.198 120.808 217.523C117.807 232.156 115.567 246.967 114.102 261.826C111.636 286.834 111.027 312.654 115.354 337.499C116.32 343.053 117.666 348.581 119.268 354.037C118.382 355.25 117.536 356.502 116.637 357.705C110.285 366.2 103.48 374.3 96.55 382.34C91.9294 387.702 92.6173 395.747 98.0583 400.301C103.499 404.855 111.631 404.177 116.251 398.815C121.456 392.772 126.52 386.647 131.461 380.411C134.203 384.349 137.228 388.117 140.702 391.447C144.994 395.561 149.852 399.114 155.269 401.661C158.636 403.243 162.195 404.416 165.858 405.108C182.429 408.239 198.03 400.938 210.62 390.846C214.696 387.578 218.477 383.993 222.107 380.253C225.316 384.671 229.102 388.7 233.787 392.016C236.773 394.13 240.026 395.887 243.413 397.297C254.012 401.71 265.725 402.317 277.013 400.712C293.093 398.424 307.673 391.718 320.488 382.371C322.859 385.885 325.734 389.067 329.184 391.668C336.228 396.992 344.956 399.401 353.725 399.89C362.422 400.374 371.098 399.114 378.789 394.893C388.389 389.623 394.571 380.97 398.975 371.271C401.727 365.19 398.955 358.078 392.774 355.366C386.603 352.653 379.395 355.386 376.643 361.469C374.702 365.766 372.289 370.106 368.326 372.917C364.465 375.658 359.721 376.081 355.111 375.825C350.028 375.543 344.915 374.213 341.66 370.134C340.602 368.797 339.781 367.289 339.062 365.738C355.532 348.105 367.936 326.907 377.988 305.212C386.048 287.802 392.702 269.776 398.39 251.486C404.099 233.157 408.874 214.525 412.734 195.736C415.527 182.156 418.176 168.487 418.484 154.595C418.628 147.813 418.269 140.944 416.842 134.293C414.377 122.806 408.247 112.152 396.563 107.857C394.406 107.061 392.147 106.513 389.858 106.212C388.533 106.037 387.198 105.971 385.915 105.991ZM387.393 130.403C389.539 130.922 390.648 132.947 391.429 134.83C393.256 139.244 393.687 144.219 393.842 148.934C394.17 159.125 392.702 169.114 390.884 179.102C389.365 187.46 387.599 195.773 385.689 204.052C378.255 236.217 368.326 268.283 354.023 298.16C347.862 311.016 340.664 323.58 332.162 335.159C332.162 335.127 332.172 335.095 332.162 335.064C330.56 321.663 330.016 308.138 330.139 294.651C330.283 280.458 331.197 266.25 333.127 252.181C334.894 239.313 337.512 226.578 340.828 214.013C343.19 205.075 345.911 196.208 348.981 187.482C350.891 182.055 352.873 176.587 355.296 171.417C358.643 164.303 362.401 157.351 366.632 150.705C369.568 146.079 372.751 141.563 376.448 137.487C378.347 135.394 380.38 133.358 382.732 131.763C384.467 130.59 385.576 129.966 387.393 130.403ZM191.785 132.649C191.806 132.671 191.828 132.689 191.849 132.711C191.991 132.869 192.143 133.045 192.266 133.217C192.618 133.713 192.894 134.255 193.165 134.799C193.855 136.186 194.396 137.649 194.833 139.131C196.155 143.607 196.749 148.282 197.111 152.918C198.241 167.414 196.702 181.916 193.582 196.084C190.535 209.913 186.352 223.473 181.581 236.813C173.77 258.655 163.999 279.862 152.992 300.311C148.691 308.298 144.122 316.146 139.387 323.901C137.083 304.132 137.641 284.015 139.61 264.261C141.993 240.373 146.388 216.552 153.184 193.49C156.066 183.71 159.326 173.925 163.837 164.746C166.69 158.939 170.178 153.411 174.041 148.207C177.303 143.811 180.999 139.535 185.335 136.127C186.722 135.037 188.185 133.995 189.796 133.25C190.301 133.015 190.826 132.817 191.368 132.68C191.437 132.663 191.638 132.676 191.785 132.649ZM253.745 266.317C253.876 268.377 253.873 270.467 253.649 272.515C252.585 282.257 249.129 291.962 245.274 300.943C242.303 307.867 238.622 314.453 234.718 320.897C235.097 317.543 235.565 314.206 236.193 310.904C238.219 300.264 241.271 289.831 245.916 280.009C247.839 275.942 249.961 271.955 252.43 268.183C252.849 267.541 253.306 266.934 253.745 266.317Z" fill="#006AE6"/>
<path d="M392.322 107.205C387.558 107.24 383.06 110.052 381.12 114.668C378.542 120.821 381.489 127.867 387.732 130.415C389.94 131.295 390.997 133.395 391.778 135.507C393.4 139.911 393.77 144.772 393.893 149.421C394.16 159.449 392.712 169.255 390.905 179.083C389.303 187.868 387.434 196.632 385.391 205.33C379.22 231.548 371.273 257.494 360.779 282.362C352.996 300.815 343.806 318.895 331.864 335.108C319.851 351.435 304.449 366.808 284.601 373.34C280.083 374.827 275.442 375.735 270.709 376.249C263.618 377.029 258.496 383.329 259.288 390.321C260.081 397.312 266.473 402.358 273.563 401.578C280.114 400.85 286.542 399.535 292.785 397.468C317.767 389.202 337.594 370.646 352.698 349.908C366.436 331.037 376.889 309.974 385.555 288.434C396.665 260.783 404.869 232.018 411.184 202.958C412.858 195.31 414.387 187.617 415.712 179.905C418.104 166.021 419.645 151.727 417.417 137.72C415.835 127.81 411.882 117.735 403.421 111.601C401.46 110.174 399.345 109.048 397.107 108.122C395.546 107.485 393.913 107.193 392.322 107.205Z" fill="url(#paint0_linear_6_132)"/>
<path d="M257.042 237.046C254.795 236.934 252.648 237.267 250.497 237.869C244.013 239.747 240.313 246.468 242.218 252.858C243.714 257.873 248.218 261.07 253.224 261.365C253.63 262.349 253.875 263.413 254.026 264.463C254.478 267.595 254.268 270.798 253.834 273.919C252.464 283.769 248.964 293.379 244.913 302.442C240.036 313.357 233.546 323.504 226.88 333.432C222.593 339.818 218.089 346.039 213.244 352.026C208.363 358.056 203.138 363.865 197.264 368.975C192.747 372.904 187.776 376.575 182.15 378.81C178.678 380.19 174.914 380.952 171.177 380.359C169.521 380.097 167.983 379.58 166.46 378.905C159.942 376.038 152.299 378.9 149.39 385.325C146.482 391.748 149.417 399.281 155.935 402.148C159.524 403.715 163.247 404.89 167.134 405.499C185.01 408.299 201.419 399.257 214.334 387.917C220.081 382.872 225.266 377.261 230.153 371.411C237.127 363.062 243.395 354.161 249.277 345.037C253.677 338.214 258.062 331.291 261.888 324.135C265.394 317.576 268.38 310.747 270.996 303.802C273.779 296.427 276.151 288.852 277.547 281.097C278.143 277.797 278.543 274.452 278.697 271.104C278.8 269.089 278.821 267.079 278.697 265.064C278.215 256.729 275.432 247.982 269.042 242.17C266.721 240.058 263.955 238.432 260.893 237.616C259.607 237.273 258.373 237.113 257.042 237.046Z" fill="url(#paint1_linear_6_132)"/>
<path d="M190.397 107.932C189.18 108.009 187.952 108.163 186.739 108.375C180.089 109.558 175.689 115.829 176.888 122.384C178.088 128.938 184.452 133.274 191.103 132.092C191.651 131.99 191.964 131.938 192.033 131.997C193.048 132.864 193.666 134.259 194.183 135.443C195.914 139.406 196.681 143.774 197.232 148.03C199.595 166.309 197.071 185.08 192.547 202.831C185.595 230.109 175.13 256.442 162.706 281.73C149.662 308.277 134.446 333.97 116.661 357.718C110.303 366.209 103.511 374.317 96.5746 382.352C91.9541 387.714 92.6092 395.728 98.0501 400.282C103.491 404.835 111.656 404.189 116.276 398.827C123.582 390.332 130.726 381.745 137.421 372.77C150.271 355.546 161.797 337.37 172.172 318.601C181.581 301.577 190.036 284.062 197.457 266.108C200.928 257.706 204.166 249.203 207.12 240.608C209.787 232.845 212.226 225.004 214.399 217.093C217.117 207.197 219.425 197.136 220.912 186.989C222.59 175.538 223.067 163.808 222.26 152.267C221.659 143.689 220.378 134.922 217.094 126.906C213.687 118.589 207.86 111.399 198.804 108.818C197.263 108.378 195.654 108.098 194.055 107.964C192.824 107.86 191.614 107.855 190.397 107.932Z" fill="url(#paint2_linear_6_132)"/>
<defs>
<linearGradient id="paint0_linear_6_132" x1="353.365" y1="219.735" x2="440.905" y2="255.266" gradientUnits="userSpaceOnUse">
<stop stop-color="#006AE6"/>
<stop offset="0.489583" stop-color="#4DA0FC"/>
<stop offset="1" stop-color="#006AE6"/>
</linearGradient>
<linearGradient id="paint1_linear_6_132" x1="197.851" y1="367.664" x2="292.778" y2="422.027" gradientUnits="userSpaceOnUse">
<stop stop-color="#006AE6"/>
<stop offset="0.31" stop-color="#4DA0FC"/>
<stop offset="1" stop-color="#006AE6"/>
</linearGradient>
<linearGradient id="paint2_linear_6_132" x1="97.0859" y1="107.103" x2="364.406" y2="277.561" gradientUnits="userSpaceOnUse">
<stop offset="0.23" stop-color="#006AE6"/>
<stop offset="0.55" stop-color="#4DA0FC"/>
<stop offset="1" stop-color="#006AE6"/>
</linearGradient>
</defs>
</svg>
