<svg width="317" height="297" viewBox="0 0 317 297" fill="none" xmlns="http://www.w3.org/2000/svg">
<path d="M284.799 0.00318951C276.029 0.13619 268.349 4.76218 261.919 10.8472C256.069 16.3852 251.239 22.9362 246.889 29.6912C242.139 37.0702 237.939 44.8272 234.169 52.7532C231.319 58.7582 228.969 64.9812 226.769 71.2532C224.129 78.7592 221.749 86.3422 219.609 94.0032C215.269 109.517 211.889 125.316 209.739 141.285C207.229 159.862 206.309 178.704 206.669 197.441C206.919 210.089 207.739 222.758 209.549 235.285C210.219 239.942 211.059 244.586 212.079 249.191C201.879 257.981 189.999 264.805 176.549 267.003C169.841 268.099 162.666 268.283 156.234 265.785C149.215 263.058 144.674 257.502 141.734 251.003C143.849 248.077 145.943 245.131 147.953 242.159C151.566 236.818 155.006 231.342 158.328 225.816C160.551 222.118 162.773 218.426 164.765 214.597C168.832 206.781 172.278 198.605 175.079 190.253C176.109 187.164 177.049 184.033 177.859 180.878C178.519 178.306 179.109 175.712 179.579 173.097C180.049 170.477 180.399 167.845 180.609 165.191C181.369 155.519 180.039 145.174 173.919 137.316C172.3 135.233 170.413 133.35 168.171 131.941C163.225 128.831 157.145 128.342 151.671 130.378C148.883 131.416 146.364 133.049 144.109 134.972C140.132 138.363 136.98 142.628 134.171 147.003C130.429 152.832 127.293 159.055 124.547 165.409C121.47 172.529 119.13 179.892 117.234 187.409C115.915 192.639 114.853 197.919 114.047 203.253C113.359 207.801 112.878 212.381 112.609 216.972C112.063 226.29 112.6 236.196 114.609 245.691C114.406 245.937 114.219 246.196 114.015 246.441C110.032 251.23 105.808 255.837 101.14 259.972C96.4398 264.136 91.2278 268.056 85.2648 270.191C81.7628 271.445 78.0068 271.938 74.3588 271.035C72.8328 270.657 71.3638 270.065 69.9838 269.316C64.3008 266.231 59.3608 260.646 56.0468 255.191C54.8498 253.221 53.8868 251.087 52.9208 248.972C71.4858 221.513 87.2918 192.132 100.171 161.628C107.135 145.137 113.18 128.207 117.921 110.941C120.704 100.807 123.153 90.5312 124.671 80.1282C126.328 68.7752 126.788 57.1382 126.015 45.6912C125.439 37.1502 124.172 28.4212 120.953 20.4412C117.168 11.0582 110.316 3.27318 99.8588 1.56618C97.4898 1.17918 95.0838 1.15418 92.7028 1.44118C82.9748 2.61118 74.5808 8.77519 67.8588 15.5352C63.1728 20.2462 59.0468 25.5052 55.3278 31.0032C51.8458 36.1512 48.6928 41.5322 45.9838 47.1282C43.1138 53.0572 40.7098 59.2232 38.5468 65.4412C33.4658 80.0442 29.6708 95.0772 26.6088 110.222C23.6858 124.682 21.5048 139.319 20.0778 154.003C17.6758 178.716 17.0828 204.232 21.2968 228.785C22.2378 234.273 23.5488 239.736 25.1088 245.128C24.2458 246.327 23.4228 247.564 22.5468 248.753C16.3608 257.148 9.73281 265.152 2.98381 273.097C-1.51619 278.396 -0.846192 286.347 4.45281 290.847C9.75181 295.347 17.6718 294.677 22.1708 289.378C27.2398 283.407 32.1718 277.354 36.9838 271.191C39.6548 275.083 42.6008 278.806 45.9838 282.097C50.1638 286.163 54.8948 289.674 60.1708 292.191C63.4498 293.754 66.9158 294.913 70.4838 295.597C86.6218 298.691 101.816 291.476 114.078 281.503C118.048 278.274 121.73 274.731 125.265 271.035C128.39 275.401 132.078 279.383 136.64 282.659C139.549 284.749 142.717 286.485 146.015 287.878C156.338 292.239 167.745 292.839 178.739 291.253C194.399 288.992 208.599 282.365 221.079 273.128C223.389 276.601 226.189 279.745 229.549 282.316C236.409 287.577 244.909 289.958 253.449 290.441C261.919 290.919 270.369 289.674 277.859 285.503C287.209 280.295 293.229 271.744 297.519 262.159C300.199 256.149 297.499 249.121 291.479 246.441C285.469 243.76 278.449 246.461 275.769 252.472C273.879 256.719 271.529 261.008 267.669 263.785C263.909 266.494 259.289 266.912 254.799 266.659C249.849 266.381 244.869 265.066 241.699 261.035C240.669 259.714 239.869 258.224 239.169 256.691C255.209 239.266 267.289 218.317 277.079 196.878C284.929 179.673 291.409 161.859 296.949 143.785C302.509 125.672 307.159 107.259 310.919 88.6912C313.639 75.2712 316.219 61.7632 316.519 48.0352C316.659 41.3332 316.309 34.5452 314.919 27.9722C312.519 16.6202 306.549 6.09218 295.169 1.84718C293.069 1.06118 290.869 0.519184 288.639 0.222184C287.349 0.0491837 286.049 -0.0158105 284.799 0.00318951ZM286.239 24.1282C288.329 24.6412 289.409 26.6422 290.169 28.5032C291.949 32.8652 292.369 37.7812 292.519 42.4412C292.839 52.5122 291.409 62.3832 289.639 72.2532C288.159 80.5132 286.439 88.7282 284.579 96.9092C277.339 128.696 267.669 160.384 253.739 189.909C247.739 202.614 240.729 215.03 232.449 226.472C232.449 226.441 232.459 226.409 232.449 226.378C230.889 213.135 230.359 199.769 230.479 186.441C230.619 172.416 231.509 158.375 233.389 144.472C235.109 131.755 237.659 119.17 240.889 106.753C243.189 97.9202 245.839 89.1582 248.829 80.5352C250.689 75.1722 252.619 69.7682 254.979 64.6592C258.239 57.6292 261.899 50.7592 266.019 44.1912C268.879 39.6192 271.979 35.1562 275.579 31.1282C277.429 29.0602 279.409 27.0482 281.699 25.4722C283.389 24.3132 284.469 23.6962 286.239 24.1282ZM95.7338 26.3472C95.7548 26.3692 95.7758 26.3872 95.7968 26.4092C95.9348 26.5652 96.0828 26.7392 96.2028 26.9092C96.5458 27.3992 96.8138 27.9352 97.0778 28.4722C97.7498 29.8432 98.2768 31.2892 98.7028 32.7532C99.9898 37.1762 100.569 41.7962 100.921 46.3782C102.022 60.7032 100.523 75.0342 97.4838 89.0352C94.5168 102.701 90.4428 116.102 85.7968 129.285C78.1888 150.869 68.6728 171.827 57.9528 192.035C53.7648 199.928 49.3148 207.683 44.7028 215.347C42.4598 195.811 43.0028 175.931 44.9208 156.409C47.2408 132.803 51.5218 109.262 58.1398 86.4722C60.9468 76.8072 64.1218 67.1372 68.5148 58.0662C71.2938 52.3282 74.6908 46.8652 78.4528 41.7222C81.6298 37.3782 85.2298 33.1522 89.4528 29.7852C90.8028 28.7072 92.2278 27.6782 93.7968 26.9412C94.2888 26.7092 94.7998 26.5132 95.3278 26.3782C95.3948 26.3612 95.5908 26.3742 95.7338 26.3472ZM156.078 158.441C156.205 160.477 156.202 162.542 155.984 164.566C154.948 174.193 151.582 183.784 147.828 192.659C144.934 199.502 141.349 206.01 137.547 212.378C137.916 209.064 138.372 205.766 138.984 202.503C140.957 191.988 143.929 181.678 148.453 171.972C150.326 167.953 152.392 164.013 154.797 160.285C155.205 159.651 155.65 159.051 156.078 158.441Z" fill="#007AFF"/>
<path d="M291.039 1.20324C286.399 1.23824 282.019 4.01724 280.129 8.57824C277.619 14.6592 280.489 21.6222 286.569 24.1402C288.719 25.0092 289.749 27.0852 290.509 29.1722C292.089 33.5242 292.449 38.3282 292.569 42.9222C292.829 52.8322 291.419 62.5222 289.659 72.2342C288.099 80.9162 286.279 89.5772 284.289 98.1722C278.279 124.081 270.539 149.722 260.319 174.297C252.739 192.533 243.789 210.4 232.159 226.422C220.459 242.556 205.459 257.748 186.129 264.203C181.729 265.673 177.209 266.57 172.599 267.078C165.693 267.849 160.705 274.075 161.476 280.984C162.248 287.893 168.474 292.88 175.379 292.109C181.759 291.389 188.019 290.09 194.099 288.047C218.429 279.879 237.739 261.541 252.449 241.047C265.829 222.399 276.009 201.584 284.449 180.297C295.269 152.972 303.259 124.546 309.409 95.8282C311.039 88.2702 312.529 80.6682 313.819 73.0472C316.149 59.3262 317.649 45.2012 315.479 31.3592C313.939 21.5652 310.089 11.6092 301.849 5.54723C299.939 4.13723 297.879 3.02423 295.699 2.10923C294.179 1.48023 292.589 1.19124 291.039 1.20324Z" fill="url(#paint0_linear_1_33)"/>
<path d="M159.289 129.515C157.1 129.404 155.009 129.733 152.914 130.328C146.6 132.184 142.996 138.826 144.851 145.14C146.308 150.096 150.695 153.256 155.57 153.547C155.966 154.52 156.204 155.571 156.351 156.609C156.792 159.704 156.587 162.869 156.164 165.953C154.83 175.687 151.421 185.184 147.476 194.14C142.726 204.927 136.406 214.954 129.914 224.765C125.738 231.076 121.352 237.224 116.633 243.14C111.88 249.099 106.791 254.84 101.07 259.89C96.6709 263.773 91.8299 267.4 86.3509 269.609C82.9689 270.973 79.3028 271.726 75.6638 271.14C74.0508 270.881 72.5529 270.37 71.0699 269.703C64.7219 266.87 57.2779 269.698 54.4449 276.047C51.6129 282.395 54.4719 289.839 60.8199 292.672C64.3149 294.221 67.9409 295.382 71.7259 295.984C89.1359 298.751 105.117 289.815 117.695 278.609C123.292 273.623 128.342 268.078 133.101 262.297C139.893 254.046 145.998 245.25 151.726 236.234C156.011 229.491 160.282 222.65 164.008 215.578C167.423 209.096 170.331 202.348 172.879 195.484C175.589 188.196 177.899 180.711 179.259 173.047C179.839 169.786 180.229 166.48 180.379 163.172C180.479 161.18 180.499 159.194 180.379 157.203C179.909 148.966 177.199 140.322 170.976 134.578C168.715 132.491 166.021 130.884 163.039 130.078C161.787 129.739 160.585 129.581 159.289 129.515Z" fill="url(#paint1_linear_1_33)"/>
<path d="M94.3828 1.9223C93.1968 1.9983 92.0008 2.1503 90.8198 2.3593C84.3428 3.5283 80.0578 9.72631 81.2258 16.2033C82.3948 22.6803 88.5928 26.9653 95.0698 25.7973C95.6038 25.6963 95.9088 25.6453 95.9758 25.7033C96.9638 26.5603 97.5658 27.9383 98.0698 29.1093C99.7558 33.0253 100.503 37.3413 101.039 41.5473C103.341 59.6113 100.882 78.1613 96.4758 95.7033C89.7058 122.659 79.5138 148.682 67.4138 173.672C54.7098 199.907 39.8908 225.297 22.5698 248.765C16.3778 257.156 9.7628 265.169 3.0078 273.109C-1.4922 278.408 -0.854186 286.328 4.44481 290.828C9.74381 295.327 17.6958 294.689 22.1948 289.39C29.3108 280.995 36.2678 272.509 42.7888 263.64C55.3028 246.619 66.5288 228.657 76.6328 210.109C85.7968 193.286 94.0308 175.977 101.258 158.234C104.639 149.931 107.792 141.529 110.669 133.035C113.267 125.363 115.642 117.615 117.758 109.797C120.405 100.017 122.653 90.0753 124.101 80.0473C125.736 68.7313 126.2 57.1393 125.414 45.7343C124.829 37.2573 123.581 28.5943 120.383 20.6723C117.065 12.4533 111.39 5.3483 102.57 2.7973C101.069 2.3623 99.5018 2.08631 97.9448 1.95331C96.7458 1.85031 95.5678 1.8453 94.3828 1.9223Z" fill="url(#paint2_linear_1_33)"/>
<defs>
<linearGradient id="paint0_linear_1_33" x1="253.099" y1="112.408" x2="338.703" y2="146.65" gradientUnits="userSpaceOnUse">
<stop stop-color="#007AFF"/>
<stop offset="0.489583" stop-color="#4DA0FC"/>
<stop offset="1" stop-color="#007AFF"/>
</linearGradient>
<linearGradient id="paint1_linear_1_33" x1="101.642" y1="258.594" x2="176.71" y2="294.811" gradientUnits="userSpaceOnUse">
<stop stop-color="#007AFF"/>
<stop offset="0.489583" stop-color="#4DA0FC"/>
<stop offset="1" stop-color="#007AFF"/>
</linearGradient>
<linearGradient id="paint2_linear_1_33" x1="3.5058" y1="1.10231" x2="129.024" y2="293.784" gradientUnits="userSpaceOnUse">
<stop offset="0.122917" stop-color="#007AFF"/>
<stop offset="0.427083" stop-color="#4DA0FC"/>
<stop offset="1" stop-color="#007AFF"/>
</linearGradient>
</defs>
</svg>
